<svg width="24" height="24" viewBox="0 0 24 24" fill="none" xmlns="http://www.w3.org/2000/svg">
<g clip-path="url(#clip0_217_2)">
<path fill-rule="evenodd" clip-rule="evenodd" d="M20 15C20 15.552 19.552 16 19 16C18.448 16 18 15.552 18 15C18 14.448 18.448 14 19 14C19.552 14 20 14.448 20 15ZM17 15C17 15.552 16.552 16 16 16C15.448 16 15 15.552 15 15C15 14.448 15.448 14 16 14C16.552 14 17 14.448 17 15ZM14 15C14 15.552 13.552 16 13 16C12.448 16 12 15.552 12 15C12 14.448 12.448 14 13 14C13.552 14 14 14.448 14 15ZM19.415 19.946C18.415 20.202 17.426 20.428 16.091 20.428C12.626 20.428 9 18.363 9 15.005C9 11.877 12.14 9.333 16 9.333C19.844 9.333 23 11.875 23 15.005C23 16.596 22.354 17.532 21.519 18.532L22.358 21.218L19.415 19.946ZM6.042 16.571L1.653 18.467L2.909 14.455C1.788 13.114 1 11.79 1 9.756C1 5.479 5.262 2 10.5 2C15.518 2 19.628 5.194 19.967 9.222C18.777 8.656 17.416 8.333 16 8.333C11.801 8.333 8 11.13 8 15.005C8 15.717 8.147 16.405 8.411 17.054C7.458 16.928 6.865 16.782 6.042 16.571ZM24 15.005C24 12.833 22.801 10.99 20.998 9.795L21 9.756C21 4.67 16.012 1 10.5 1C4.954 1 0 4.698 0 9.756C0 11.55 0.646 13.312 1.791 14.678L0.047 20.25L6.125 17.625C7.107 17.878 8.057 18.032 8.975 18.114C10.292 20.067 12.851 21.428 16.091 21.428C17.11 21.428 18.196 21.293 19.333 21L23.964 23L22.636 18.755C23.507 17.713 24 16.371 24 15.005Z" fill="#9327FF"/>
</g>
<defs>
<clipPath id="clip0_217_2">
<rect width="24" height="24" fill="white"/>
</clipPath>
</defs>
</svg>
