<svg width="56" height="56" viewBox="0 0 56 56" fill="none" xmlns="http://www.w3.org/2000/svg">
<rect y="1.52588e-05" width="56" height="56" rx="12" fill="#9327FF"/>
<path d="M43.8623 38.6779L37.6079 33.0426C37.384 32.8414 37.0805 32.7283 36.7642 32.7283C36.4479 32.7283 36.1444 32.8414 35.9204 33.0426L35.5989 33.3337L33.4512 31.3986C35.5695 29.2483 36.675 26.4392 36.5333 23.5669C36.3916 20.6946 35.0138 17.9849 32.6922 16.0125C30.3705 14.0401 27.2875 12.9599 24.0968 13.0011C20.9061 13.0424 17.8587 14.2017 15.6007 16.2333C13.3428 18.2649 12.0518 21.009 12.0015 23.8838C11.9513 26.7586 13.1457 29.538 15.3316 31.6326C17.5174 33.7273 20.5228 34.9725 23.7104 35.1042C26.8981 35.2359 30.0173 34.2438 32.4068 32.3382L34.556 34.2734L34.2329 34.5631C34.0091 34.765 33.8834 35.0386 33.8834 35.324C33.8834 35.6093 34.0091 35.883 34.2329 36.0849L40.4873 41.7175C40.598 41.8173 40.7294 41.8965 40.8741 41.9505C41.0187 42.0045 41.1737 42.0323 41.3303 42.0323C41.4869 42.0323 41.6419 42.0045 41.7866 41.9505C41.9312 41.8965 42.0626 41.8173 42.1733 41.7175L43.8623 40.1984C44.0853 39.9964 44.2105 39.7231 44.2105 39.4381C44.2105 39.1532 44.0853 38.8799 43.8623 38.6779ZM13.5287 24.09C13.5287 22.1711 14.1602 20.2952 15.3434 18.6997C16.5266 17.1042 18.2084 15.8606 20.176 15.1263C22.1436 14.3919 24.3087 14.1998 26.3975 14.5742C28.4863 14.9485 30.405 15.8726 31.911 17.2295C33.4169 18.5863 34.4425 20.3151 34.858 22.1972C35.2735 24.0792 35.0602 26.03 34.2452 27.8029C33.4302 29.5757 32.05 31.091 30.2792 32.1571C28.5084 33.2232 26.4265 33.7922 24.2968 33.7922C21.4419 33.7894 18.7048 32.7663 16.686 30.9474C14.6673 29.1285 13.5318 26.6623 13.5287 24.09ZM41.3311 40.5984L35.475 35.3247L36.7642 34.1644L42.6203 39.4381L41.3311 40.5984ZM32.4097 27.7449V20.435C32.4094 20.1708 32.2927 19.9174 32.0853 19.7306C31.8779 19.5437 31.5967 19.4386 31.3034 19.4382H29.0908C28.7975 19.4386 28.5163 19.5437 28.309 19.7306C28.1016 19.9174 27.9849 20.1708 27.9845 20.435V27.7449C27.9849 28.0092 28.1016 28.2625 28.309 28.4494C28.5163 28.6363 28.7975 28.7414 29.0908 28.7417H31.3034C31.5967 28.7414 31.8779 28.6363 32.0853 28.4494C32.2927 28.2625 32.4094 28.0092 32.4097 27.7449ZM30.9347 27.4127H29.4596V20.7673H30.9347V27.4127ZM25.4031 16.7801H23.1905C22.8972 16.7804 22.616 16.8856 22.4086 17.0724C22.2012 17.2593 22.0846 17.5126 22.0842 17.7769V27.7449C22.0846 28.0092 22.2012 28.2625 22.4086 28.4494C22.616 28.6363 22.8972 28.7414 23.1905 28.7417H25.4031C25.6964 28.7414 25.9776 28.6363 26.185 28.4494C26.3923 28.2625 26.509 28.0092 26.5094 27.7449V17.7769C26.509 17.5126 26.3923 17.2593 26.185 17.0724C25.9776 16.8856 25.6964 16.7804 25.4031 16.7801ZM25.0343 27.4127H23.5592V18.1091H25.0343V27.4127ZM19.5028 22.0964H17.2901C16.9968 22.0967 16.7157 22.2019 16.5083 22.3887C16.3009 22.5756 16.1842 22.8289 16.1838 23.0932V27.7449C16.1842 28.0092 16.3009 28.2625 16.5083 28.4494C16.7157 28.6363 16.9968 28.7414 17.2901 28.7417H19.5028C19.7961 28.7414 20.0772 28.6363 20.2846 28.4494C20.492 28.2625 20.6087 28.0092 20.6091 27.7449V23.0932C20.6087 22.8289 20.492 22.5756 20.2846 22.3887C20.0772 22.2019 19.7961 22.0967 19.5028 22.0964ZM19.134 27.4127H17.6589V23.4254H19.134V27.4127Z" fill="#0D1116"/>
</svg>
