<svg width="56" height="56" viewBox="0 0 56 56" fill="none" xmlns="http://www.w3.org/2000/svg">
<rect width="56" height="56" rx="12" fill="#0D1116"/>
<path d="M26.6562 42.9374H15.6875V14.0624H26.6562C27.122 14.0624 27.5 13.6004 27.5 13.0312C27.5 12.462 27.1219 12 26.6562 12H14.8437C14.378 12 14 12.4619 14 13.0312V43.9686C14 44.5379 14.378 44.9998 14.8437 44.9998H26.6562C27.1219 44.9998 27.4999 44.5378 27.4999 43.9686C27.5 43.3993 27.1219 42.9374 26.6562 42.9374Z" fill="white"/>
<path d="M40.7552 27.7798L34.9334 20.5622C34.6035 20.1548 34.0694 20.1558 33.7403 20.5622C33.4104 20.9685 33.4104 21.6284 33.7403 22.0348L38.1278 27.4746H20.7525C20.2868 27.4746 19.9088 27.9407 19.9088 28.5162C19.9088 29.0916 20.2868 29.5578 20.7525 29.5578H38.1278L33.7403 34.9976C33.4104 35.405 33.4104 36.0639 33.7403 36.4702C34.0702 36.8776 34.6043 36.8776 34.9334 36.4702L40.7544 29.2525C41.0801 28.8514 41.0835 28.18 40.7552 27.7798Z" fill="white"/>
</svg>
