<svg width="54" height="51" viewBox="0 0 54 51" fill="none" xmlns="http://www.w3.org/2000/svg">
<path d="M53.431 40.4073C53.431 45.9277 48.9434 50.4238 43.4175 50.4238H10.5823C5.06351 50.4238 0.568848 45.9348 0.568848 40.4073V10.5856C0.568848 5.06512 5.0564 0.569092 10.5823 0.569092H43.4175C48.9363 0.569092 53.431 5.058 53.431 10.5856V40.4073Z" fill="url(#paint0_linear_276_10)"/>
<path d="M34.1722 30.1632H19.1023V36.7934H34.1722V30.1632Z" fill="#9327FF"/>
<path d="M11.3433 32.8736L18.5333 36.6014V30.0494L11.3433 26.343V32.8736Z" fill="#6023B7"/>
<path d="M31.5339 28.6693H27.2242C27.2099 28.6693 27.2028 28.6693 27.1886 28.6693C27.1744 28.6693 27.1673 28.6692 27.1602 28.6621C27.153 28.6621 27.1459 28.6621 27.1459 28.655C27.1317 28.6479 27.1175 28.6479 27.1033 28.6408C27.1033 28.6408 27.0961 28.6408 27.0961 28.6337L26.3423 28.2211V28.3776C26.3423 28.5341 26.2143 28.6621 26.0578 28.6621H18.818C18.7967 28.6621 18.7753 28.6621 18.754 28.655C18.754 28.655 18.754 28.655 18.7469 28.655C18.7398 28.655 18.7398 28.655 18.7327 28.6479C18.7184 28.6408 18.7042 28.6408 18.69 28.6337H18.6829L13.9322 26.158H12.2253L17.2463 28.7475L18.882 29.5941H33.2905L31.5339 28.6693Z" fill="#6023B7"/>
<path d="M43.4247 0H10.5824C4.75069 0 0 4.74501 0 10.5856V40.4144C0 46.2479 4.74358 51 10.5824 51H43.4176C49.2493 51 54 46.255 54 40.4144V10.5856C54 4.74501 49.2564 0 43.4247 0ZM53.4311 40.4073C53.4311 45.9277 48.9435 50.4238 43.4176 50.4238H10.5824C5.06361 50.4238 0.568945 45.9349 0.568945 40.4073V10.5856C0.568945 5.06514 5.0565 0.569117 10.5824 0.569117H43.4176C48.9364 0.569117 53.4311 5.05803 53.4311 10.5856V40.4073Z" fill="white"/>
<path d="M43.1332 38.4154C43.1332 38.4083 43.1332 38.4011 43.1261 38.3869C43.1261 38.3798 43.119 38.3727 43.119 38.3585C43.119 38.3513 43.1119 38.3442 43.1119 38.33C43.1047 38.3229 43.1047 38.3158 43.0976 38.3087C43.0905 38.3015 43.0905 38.2944 43.0834 38.2873C43.0763 38.2802 43.0692 38.2731 43.0692 38.266C43.0621 38.2589 43.055 38.2518 43.0479 38.2446C43.0407 38.2375 43.0336 38.2304 43.0265 38.2304C43.0194 38.2233 43.0123 38.2162 42.9981 38.2162L42.991 38.2091L41.4406 37.3554H42.8416C42.9981 37.3554 43.1261 37.2273 43.1261 37.0708V29.8786C43.1261 29.8715 43.1261 29.8715 43.1261 29.8644C43.1261 29.8573 43.1261 29.843 43.1261 29.8359C43.1261 29.8288 43.1261 29.8217 43.119 29.8075C43.119 29.8004 43.1119 29.7933 43.1119 29.779C43.1119 29.7719 43.1047 29.7648 43.1047 29.7506C43.0976 29.7435 43.0976 29.7363 43.0905 29.7292C43.0834 29.7221 43.0834 29.715 43.0763 29.7079C43.0692 29.7008 43.0621 29.6937 43.0621 29.6865C43.055 29.6794 43.0479 29.6723 43.0407 29.6652C43.0336 29.6581 43.0265 29.651 43.0194 29.651C43.0123 29.6439 43.0052 29.6367 42.991 29.6367L42.9838 29.6296L41.2272 28.6692H42.8487C43.0052 28.6692 43.1332 28.5412 43.1332 28.3847V11.6953C43.1332 11.5957 43.0834 11.5033 42.9981 11.4535L39.3782 9.1841H39.371C39.371 9.1841 39.3639 9.1841 39.3639 9.17699L31.9321 5.02955C31.8396 4.97975 31.733 4.97975 31.6405 5.03666L27.7575 7.47675C27.7575 7.47675 27.7575 7.47675 27.7503 7.47675L27.7432 7.48386C27.7361 7.49098 27.7219 7.49809 27.7148 7.5052L27.7077 7.51232C27.6935 7.52655 27.6863 7.53366 27.6792 7.54789C27.6792 7.54789 27.6792 7.555 27.6721 7.555C27.665 7.56923 27.6579 7.57634 27.6508 7.59057C27.6508 7.59769 27.6437 7.59769 27.6437 7.6048C27.6366 7.61903 27.6294 7.63326 27.6294 7.64748V7.6546C27.6294 7.66883 27.6223 7.68305 27.6223 7.69728V7.70439V8.35177L26.8258 7.94627C26.7334 7.90359 26.6338 7.90359 26.5484 7.9605L19.3513 12.485C19.3513 12.485 19.3513 12.485 19.3442 12.485L19.3371 12.4921C19.33 12.4992 19.3157 12.5063 19.3086 12.5134L19.3015 12.5205C19.2873 12.5348 19.2802 12.5419 19.2731 12.5561C19.2731 12.5561 19.2731 12.5632 19.266 12.5632C19.2588 12.5775 19.2517 12.5846 19.2446 12.5988C19.2446 12.6059 19.2375 12.6059 19.2375 12.613C19.2304 12.6273 19.2233 12.6415 19.2233 12.6557V12.6628C19.2233 12.6771 19.2162 12.6913 19.2162 12.7055V12.7126V13.3671L18.4837 12.9901C18.3912 12.9474 18.2845 12.9474 18.1992 13.0043L10.8953 17.543C10.8811 17.5501 10.8669 17.5643 10.8598 17.5715L10.8527 17.5786C10.8385 17.5928 10.8313 17.5999 10.8242 17.6141L10.8171 17.6213C10.81 17.6355 10.8029 17.6426 10.7958 17.6568C10.7958 17.6568 10.7958 17.6639 10.7887 17.6639C10.7816 17.6782 10.7744 17.6924 10.7744 17.7066V17.7137C10.7744 17.728 10.7673 17.7422 10.7673 17.7564C10.7673 17.7635 10.7673 17.7635 10.7673 17.7707V17.7778V24.3084C10.7673 24.4151 10.8242 24.5147 10.9238 24.5645L12.844 25.5676H11.0589C11.0589 25.5676 11.0589 25.5676 11.0518 25.5676C11.0376 25.5676 11.0234 25.5676 11.0091 25.5747H11.002C10.9878 25.5747 10.9807 25.5818 10.9665 25.5818C10.9594 25.5818 10.9594 25.5818 10.9522 25.5889C10.9451 25.5889 10.9309 25.596 10.9238 25.6031C10.9167 25.6031 10.9167 25.6102 10.9096 25.6102H10.9025C10.8953 25.6174 10.8882 25.6174 10.8811 25.6245C10.8811 25.6245 10.874 25.6245 10.874 25.6316C10.8598 25.6387 10.8527 25.6529 10.8456 25.66L10.8385 25.6672C10.8313 25.6743 10.8242 25.6814 10.8171 25.6885C10.8171 25.6956 10.81 25.6956 10.81 25.7027C10.8029 25.7098 10.8029 25.7241 10.7958 25.7312C10.7958 25.7312 10.7958 25.7383 10.7887 25.7383C10.7816 25.7525 10.7816 25.7667 10.7744 25.781V25.7881C10.7744 25.8023 10.7673 25.8094 10.7673 25.8237C10.7673 25.8308 10.7673 25.8308 10.7673 25.8379C10.7673 25.845 10.7673 25.845 10.7673 25.8521V33.023C10.7673 33.1297 10.8242 33.2293 10.9238 33.2791L12.5808 34.1399H11.0589H11.0518C11.0447 34.1399 11.0376 34.1399 11.0376 34.1399C11.0234 34.1399 11.002 34.147 10.9878 34.147C10.9807 34.147 10.9736 34.1541 10.9665 34.1541C10.9522 34.1612 10.938 34.1683 10.9238 34.1755C10.9238 34.1755 10.9167 34.1755 10.9096 34.1826C10.9096 34.1826 10.9025 34.1826 10.9025 34.1897L10.8953 34.1968C10.8811 34.2039 10.874 34.211 10.8598 34.2252C10.8598 34.2252 10.8527 34.2252 10.8527 34.2324C10.8385 34.2466 10.8313 34.2537 10.8242 34.2679L10.8171 34.275C10.81 34.2893 10.8029 34.2964 10.7958 34.3106V34.3177C10.7887 34.332 10.7816 34.3462 10.7816 34.3604C10.7816 34.3675 10.7816 34.3675 10.7816 34.3746C10.7816 34.3889 10.7744 34.4102 10.7744 34.4244V41.5953C10.7744 41.702 10.8313 41.8016 10.9238 41.8443L18.6828 45.9277H18.6899C18.7041 45.9348 18.7183 45.9419 18.7326 45.9419C18.7397 45.9419 18.7468 45.9491 18.7468 45.9491C18.7681 45.9562 18.7895 45.9562 18.8108 45.9562H26.0648C26.2213 45.9562 26.3493 45.8281 26.3493 45.6716V45.4653L27.0676 45.9135C27.0818 45.9206 27.0889 45.9277 27.1032 45.9348H27.1103C27.1245 45.9419 27.1387 45.9419 27.153 45.9491C27.1601 45.9491 27.1601 45.9491 27.1672 45.9491C27.1814 45.9491 27.2027 45.9562 27.217 45.9562H34.4568C34.6132 45.9562 34.7413 45.8281 34.7413 45.6716V45.4653L35.4595 45.9135C35.4738 45.9206 35.4809 45.9277 35.4951 45.9348H35.5022C35.5164 45.9419 35.5307 45.9419 35.5449 45.9491C35.552 45.9491 35.552 45.9491 35.5591 45.9491C35.5733 45.9491 35.5947 45.9562 35.6089 45.9562H42.8487C43.0052 45.9562 43.1332 45.8281 43.1332 45.6716V38.4581C43.1332 38.4509 43.1332 38.4509 43.1332 38.4438C43.1403 38.4367 43.1332 38.4225 43.1332 38.4154ZM41.7464 38.1735H35.6871L34.1723 37.3554H34.4639C34.6204 37.3554 34.7484 37.2273 34.7484 37.0708V36.9641L35.4809 37.3269H35.488C35.5022 37.334 35.5164 37.3412 35.5307 37.3412C35.5378 37.3412 35.5449 37.3483 35.5449 37.3483C35.5591 37.3554 35.5805 37.3554 35.5947 37.3554H35.6018H40.26L41.7464 38.1735ZM27.2881 38.1735L25.7733 37.3554H31.797L33.3189 38.1735H27.2881ZM12.2324 26.158H13.9392L18.6899 28.6337H18.697C18.7112 28.6408 18.7255 28.6479 18.7397 28.6479C18.7468 28.6479 18.7468 28.655 18.7539 28.655C18.7539 28.655 18.7539 28.655 18.761 28.655C18.7823 28.6621 18.8037 28.6621 18.825 28.6621H26.0506C26.2071 28.6621 26.3351 28.5341 26.3351 28.3776V28.2211L27.0889 28.6337C27.0889 28.6337 27.0961 28.6337 27.0961 28.6408C27.1103 28.6479 27.1245 28.655 27.1387 28.655C27.1458 28.655 27.153 28.6621 27.153 28.6621C27.1743 28.6692 27.1956 28.6692 27.217 28.6692H31.5267L33.2976 29.5941H18.889L17.2533 28.7475L12.2324 26.158ZM33.0771 28.8329L32.7642 28.6692H32.7784L33.0771 28.8329ZM35.3173 36.6155L34.7484 36.331V29.8786C34.7484 29.8715 34.7484 29.8715 34.7484 29.8644C34.7484 29.8502 34.7484 29.843 34.7484 29.8288C34.7484 29.8217 34.7484 29.8146 34.7484 29.8075C34.7484 29.7933 34.7413 29.7861 34.7413 29.7719C34.7413 29.7648 34.7413 29.7648 34.7341 29.7577C34.727 29.7435 34.7199 29.7292 34.7128 29.715C34.7128 29.715 34.7128 29.715 34.7057 29.7079L34.6986 29.7008L35.3315 30.0422V36.6155H35.3173ZM19.1024 36.7863V30.1561H34.1723V36.7863H19.1024ZM31.5978 28.1001H27.5014V16.917L34.1652 12.6628V28.093H31.5978V28.1001ZM25.759 27.7444V28.093H19.1024V22.0035L25.759 17.7564V27.7444ZM11.3434 26.343L18.5334 30.0494V36.6013L11.3434 32.8736V26.343ZM42.5571 36.7863H35.8863V30.1561H42.5571V36.7863ZM41.7251 29.5941H35.6729L33.9661 28.6692H34.4568C34.6132 28.6692 34.7413 28.5412 34.7413 28.3847V28.2282L35.4595 28.6337C35.4667 28.6408 35.4738 28.6408 35.4809 28.6479C35.4809 28.6479 35.488 28.6479 35.488 28.655C35.5022 28.6621 35.5164 28.6692 35.5378 28.6692H35.5449C35.5591 28.6692 35.5805 28.6764 35.5947 28.6764H40.0253L41.7251 29.5941ZM42.5571 28.1001H35.8863V11.8518L39.2217 9.76033L42.5571 11.8518V28.1001ZM31.797 5.61289L38.6599 9.4402L35.5876 11.3681L28.4829 7.69728L31.797 5.61289ZM28.1913 8.18814L35.3102 11.8732V27.8938L34.7413 27.5666V12.1435V12.1364V12.1293C34.7413 12.1222 34.7413 12.1222 34.7413 12.1151C34.7413 12.1079 34.7413 12.1008 34.7413 12.0937C34.7413 12.0866 34.7413 12.0795 34.7341 12.0724C34.7341 12.0653 34.7341 12.0581 34.727 12.051C34.727 12.0439 34.7199 12.0368 34.7199 12.0297C34.7199 12.0226 34.7128 12.0155 34.7128 12.0155C34.7128 12.0083 34.7057 12.0012 34.7057 12.0012C34.7057 11.9941 34.6986 11.9941 34.6986 11.987C34.6986 11.9799 34.6915 11.9728 34.6844 11.9728C34.6844 11.9657 34.6772 11.9657 34.6772 11.9585C34.6701 11.9514 34.6701 11.9514 34.663 11.9443C34.6559 11.9372 34.6559 11.9372 34.6488 11.9301C34.6417 11.923 34.6417 11.923 34.6346 11.9159C34.6275 11.9087 34.6275 11.9087 34.6204 11.9016C34.6132 11.8945 34.6061 11.8945 34.6061 11.8874C34.599 11.8874 34.599 11.8803 34.5919 11.8803C34.5919 11.8803 34.5919 11.8803 34.5848 11.8803C34.5848 11.8803 34.5848 11.8803 34.5777 11.8803L28.1842 8.64344V8.18814H28.1913ZM26.7191 8.54384L33.8878 12.172L27.2098 16.4332L20.0838 12.7126L26.7191 8.54384ZM19.7922 13.2035L26.9396 16.9312V27.9009L26.3351 27.5737V17.2371C26.3351 17.23 26.3351 17.2229 26.3351 17.2086V17.2015C26.3351 17.1873 26.328 17.1731 26.328 17.1517C26.328 17.1446 26.328 17.1446 26.3209 17.1375C26.3138 17.1233 26.3138 17.1162 26.3066 17.1019C26.3066 17.0948 26.3066 17.0948 26.2995 17.0877C26.2924 17.0735 26.2853 17.0593 26.2711 17.045L26.264 17.0379C26.2569 17.0308 26.2426 17.0166 26.2355 17.0095L26.2284 17.0023C26.2142 16.9952 26.2071 16.981 26.1929 16.9739C26.1929 16.9739 26.1929 16.9739 26.1857 16.9739L19.7922 13.6872V13.2035ZM18.3699 13.5876L25.4746 17.2656L18.8037 21.5197L11.6279 17.7778L18.3699 13.5876ZM11.3434 24.1661V18.2757L18.5334 22.0248V27.9152L14.1383 25.6245L11.3434 24.1661ZM13.6832 34.7303L18.6899 37.3269H18.697C18.7112 37.334 18.7255 37.3412 18.7397 37.3412C18.7468 37.3412 18.7539 37.3483 18.7539 37.3483C18.7752 37.3554 18.7966 37.3554 18.8179 37.3554H23.3979L24.9198 38.1735H18.8819L12.2181 34.7303H13.6832ZM11.3434 34.9153L18.5334 38.6359V45.2377L11.3434 41.4459V34.9153ZM25.7804 45.4155H19.1095V38.7426H25.7804V45.4155ZM26.3493 38.4438C26.3493 38.4367 26.3493 38.4225 26.3493 38.4154C26.3493 38.4083 26.3493 38.4011 26.3422 38.3869C26.3422 38.3798 26.3351 38.3727 26.3351 38.3585C26.3351 38.3513 26.328 38.3442 26.328 38.33C26.3209 38.3229 26.3209 38.3158 26.3138 38.3087C26.3066 38.3015 26.3066 38.2944 26.2995 38.2873L26.2924 38.2802L26.9396 38.6288V45.1879L26.3564 44.8251V38.4581C26.3493 38.4509 26.3493 38.4509 26.3493 38.4438ZM34.1723 45.4155H27.5014V38.7426H34.1723V45.4155ZM34.7413 38.4438C34.7413 38.4367 34.7413 38.4225 34.7413 38.4154C34.7413 38.4083 34.7413 38.4011 34.7341 38.3869C34.7341 38.3798 34.727 38.3727 34.727 38.3585C34.727 38.3513 34.7199 38.3442 34.7199 38.33C34.7128 38.3229 34.7128 38.3158 34.7057 38.3087C34.6986 38.3015 34.6986 38.2944 34.6915 38.2873L34.6844 38.2802L35.3315 38.6288V45.1879L34.7484 44.8251V38.4581C34.7413 38.4509 34.7413 38.4509 34.7413 38.4438ZM42.5714 45.4155H35.9005V38.7426H42.5714V45.4155Z" fill="white"/>
<defs>
<linearGradient id="paint0_linear_276_10" x1="0.575184" y1="25.4964" x2="53.4317" y2="25.4964" gradientUnits="userSpaceOnUse">
<stop stop-color="#F9A345"/>
<stop offset="1" stop-color="#B0668B"/>
</linearGradient>
</defs>
</svg>
