<svg width="32" height="32" viewBox="0 0 32 32" fill="none" xmlns="http://www.w3.org/2000/svg">
<circle cx="16" cy="16" r="16" fill="#FF001F" fill-opacity="0.1"/>
<path d="M15.9637 21.3943C15.7257 22.0782 14.8213 22.3932 14.2627 21.8073C14.1479 21.6883 14.0345 21.5595 13.9575 21.444C13.7335 21.108 13.639 20.6649 13.6047 20.233C13.5697 19.7941 13.5935 19.3223 13.6383 18.8946C13.6786 18.523 13.7349 18.1532 13.807 17.7865L13.814 17.7501H13.1959C12.8882 17.7501 12.5843 17.6826 12.3057 17.5522C12.027 17.4218 11.7804 17.2318 11.5833 16.9957C11.3862 16.7595 11.2434 16.4829 11.1649 16.1854C11.0865 15.8879 11.0744 15.5768 11.1295 15.2742L11.6083 12.6415C11.6863 12.2118 11.8528 11.8032 12.0972 11.4413C12.3416 11.0795 12.6586 10.7724 13.028 10.5396C13.3974 10.3068 13.8112 10.1533 14.243 10.0889C14.6749 10.0245 15.1154 10.0506 15.5367 10.1656L19.4567 11.2345C19.7702 11.3201 20.0536 11.4913 20.2753 11.7289C20.497 11.9665 20.6481 12.2612 20.7118 12.5799L20.9589 13.8154C21.1535 14.7877 20.4101 15.6067 19.6198 15.9189C19.4055 15.9985 19.2066 16.1146 19.0318 16.2619C17.8369 17.3217 17.4043 18.168 16.6623 19.6569C16.4145 20.1539 16.1597 20.8301 15.9637 21.3943ZM14.5882 17.4848V17.4862L14.5868 17.4911L14.5819 17.5128C14.5495 17.6484 14.5201 17.7847 14.4937 17.9216C14.4405 18.1932 14.3768 18.5656 14.3348 18.9681C14.2921 19.372 14.2718 19.7969 14.3026 20.1777C14.3334 20.5669 14.4146 20.8672 14.5406 21.0562C14.6096 21.1513 14.6859 21.2409 14.7688 21.3243C14.9081 21.4699 15.2084 21.4363 15.3022 21.1647C15.5003 20.5949 15.767 19.8837 16.0358 19.3447C16.7827 17.846 17.265 16.8933 18.567 15.7383C18.805 15.5269 19.0878 15.3764 19.3622 15.2679C19.9782 15.0243 20.3751 14.4643 20.2722 13.9526L20.0258 12.7171C19.9875 12.5258 19.8967 12.3489 19.7635 12.2064C19.6304 12.0638 19.4601 11.9612 19.2719 11.91L15.3519 10.8411C15.0243 10.7518 14.6818 10.7315 14.346 10.7816C14.0102 10.8317 13.6885 10.951 13.4013 11.132C13.1141 11.313 12.8676 11.5517 12.6775 11.833C12.4874 12.1143 12.3579 12.432 12.2971 12.7661L11.8183 15.3995C11.7816 15.6012 11.7896 15.8086 11.8419 16.0069C11.8942 16.2053 11.9894 16.3897 12.1208 16.5471C12.2522 16.7046 12.4167 16.8312 12.6024 16.9182C12.7882 17.0051 12.9908 17.0501 13.1959 17.0501H14.2494C14.3025 17.0502 14.3549 17.0624 14.4026 17.0857C14.4502 17.1091 14.492 17.143 14.5246 17.1849C14.5573 17.2268 14.58 17.2756 14.591 17.3275C14.602 17.3795 14.601 17.4332 14.5882 17.4848Z" fill="#FF001F"/>
</svg>
