<svg width="32" height="32" viewBox="0 0 32 32" fill="none" xmlns="http://www.w3.org/2000/svg">
<g clip-path="url(#clip0_1020_15)">
<path d="M16 32C24.8366 32 32 24.8366 32 16C32 7.16344 24.8366 0 16 0C7.16344 0 0 7.16344 0 16C0 24.8366 7.16344 32 16 32Z" fill="#828282" fill-opacity="0.1"/>
<path d="M15.9638 21.3943C15.7258 22.0782 14.8214 22.3932 14.2628 21.8073C14.148 21.6883 14.0346 21.5595 13.9576 21.444C13.7336 21.108 13.6391 20.6649 13.6048 20.233C13.5698 19.7941 13.5936 19.3223 13.6384 18.8946C13.6787 18.523 13.735 18.1532 13.8071 17.7865L13.8141 17.7501H13.196C12.8883 17.7501 12.5844 17.6826 12.3058 17.5522C12.0271 17.4218 11.7805 17.2318 11.5834 16.9957C11.3863 16.7595 11.2435 16.4829 11.165 16.1854C11.0866 15.8879 11.0745 15.5768 11.1296 15.2742L11.6084 12.6415C11.6864 12.2118 11.8529 11.8032 12.0973 11.4413C12.3417 11.0795 12.6587 10.7724 13.0281 10.5396C13.3975 10.3068 13.8113 10.1533 14.2431 10.0889C14.675 10.0245 15.1155 10.0506 15.5368 10.1656L19.4568 11.2345C19.7703 11.3201 20.0537 11.4913 20.2754 11.7289C20.4971 11.9665 20.6482 12.2612 20.7119 12.5799L20.9591 13.8154C21.1537 14.7877 20.4103 15.6067 19.62 15.9189C19.4057 15.9985 19.2067 16.1146 19.0319 16.2619C17.837 17.3217 17.4044 18.168 16.6624 19.6569C16.4146 20.1539 16.1598 20.8301 15.9638 21.3943ZM14.5883 17.4848V17.4862L14.5869 17.4911L14.582 17.5128C14.5496 17.6484 14.5202 17.7847 14.4938 17.9216C14.4406 18.1932 14.3769 18.5656 14.3349 18.9681C14.2922 19.372 14.2719 19.7969 14.3027 20.1777C14.3335 20.5669 14.4147 20.8672 14.5407 21.0562C14.6097 21.1513 14.686 21.2409 14.7689 21.3243C14.9082 21.4699 15.2085 21.4363 15.3023 21.1647C15.5004 20.5949 15.7672 19.8837 16.036 19.3447C16.7829 17.846 17.2651 16.8933 18.5671 15.7383C18.8051 15.5269 19.0879 15.3764 19.3623 15.2679C19.9783 15.0243 20.3752 14.4643 20.2723 13.9526L20.026 12.7171C19.9877 12.5258 19.8968 12.3489 19.7636 12.2064C19.6305 12.0638 19.4602 11.9612 19.272 11.91L15.352 10.8411C15.0244 10.7518 14.6819 10.7315 14.3461 10.7816C14.0103 10.8317 13.6886 10.951 13.4014 11.132C13.1142 11.313 12.8677 11.5517 12.6776 11.833C12.4875 12.1143 12.358 12.432 12.2972 12.7661L11.8184 15.3995C11.7817 15.6012 11.7897 15.8086 11.842 16.0069C11.8943 16.2053 11.9895 16.3897 12.1209 16.5471C12.2523 16.7046 12.4168 16.8312 12.6025 16.9182C12.7883 17.0051 12.9909 17.0501 13.196 17.0501H14.2495C14.3026 17.0502 14.355 17.0624 14.4027 17.0857C14.4503 17.1091 14.4921 17.143 14.5247 17.1849C14.5574 17.2268 14.5801 17.2756 14.5911 17.3275C14.6021 17.3795 14.6011 17.4332 14.5883 17.4848Z" fill="#959595"/>
</g>
<defs>
<clipPath id="clip0_1020_15">
<rect width="32" height="32" fill="white"/>
</clipPath>
</defs>
</svg>
