<svg width="40" height="32" viewBox="0 0 40 32" fill="none" xmlns="http://www.w3.org/2000/svg">
<path fill-rule="evenodd" clip-rule="evenodd" d="M40 3.78802C38.5 4.44209 36.9114 4.87072 35.286 5.06002C36.9925 4.05962 38.2754 2.47095 38.894 0.592023C37.2801 1.53402 35.5186 2.19668 33.684 2.55202C32.9106 1.74301 31.9808 1.09962 30.9511 0.660924C29.9214 0.222228 28.8133 -0.00262231 27.694 2.30735e-05C23.162 2.30735e-05 19.488 3.61602 19.488 8.08002C19.488 8.71202 19.56 9.32802 19.7 9.92002C16.449 9.76569 13.2659 8.93545 10.3537 7.48227C7.44145 6.02909 4.86409 3.98487 2.786 1.48002C2.05717 2.70882 1.67303 4.11134 1.674 5.54002C1.67616 6.87598 2.01119 8.19035 2.64881 9.36433C3.28644 10.5383 4.20655 11.5349 5.326 12.264C4.02452 12.2242 2.75076 11.8781 1.608 11.254V11.354C1.608 15.268 4.436 18.534 8.188 19.276C6.97927 19.5987 5.71363 19.6465 4.484 19.416C5.528 22.624 8.558 24.96 12.15 25.026C9.23 27.277 5.6449 28.4941 1.958 28.486C1.30363 28.4854 0.649859 28.4467 0 28.37C3.76463 30.7477 8.12741 32.0066 12.58 32C27.674 32 35.928 19.69 35.928 9.01602C35.928 8.66602 35.92 8.31602 35.904 7.97002C37.5075 6.83192 38.8947 5.41432 40 3.78802Z" fill="white"/>
</svg>
