<svg width="32" height="32" viewBox="0 0 32 32" fill="none" xmlns="http://www.w3.org/2000/svg">
<circle cx="16" cy="16" r="16" fill="#75EB00" fill-opacity="0.1"/>
<path d="M16.0363 10.6057C16.2743 9.92184 17.1787 9.60684 17.7373 10.1927C17.8521 10.3117 17.9655 10.4405 18.0425 10.556C18.2665 10.892 18.361 11.3351 18.3953 11.767C18.4303 12.2059 18.4065 12.6777 18.3617 13.1054C18.3214 13.477 18.2651 13.8468 18.193 14.2135L18.186 14.2499H18.8041C19.1118 14.2499 19.4157 14.3174 19.6943 14.4478C19.973 14.5782 20.2196 14.7682 20.4167 15.0043C20.6138 15.2405 20.7566 15.5171 20.8351 15.8146C20.9135 16.1121 20.9256 16.4232 20.8705 16.7258L20.3917 19.3585C20.3137 19.7882 20.1472 20.1968 19.9028 20.5587C19.6584 20.9205 19.3414 21.2276 18.972 21.4604C18.6026 21.6932 18.1888 21.8467 17.757 21.9111C17.3251 21.9755 16.8846 21.9494 16.4633 21.8344L12.5433 20.7655C12.2298 20.6799 11.9464 20.5087 11.7247 20.2711C11.503 20.0335 11.3519 19.7388 11.2882 19.4201L11.0411 18.1846C10.8465 17.2123 11.5899 16.3933 12.3802 16.0811C12.5945 16.0015 12.7934 15.8854 12.9682 15.7381C14.1631 14.6783 14.5957 13.832 15.3377 12.3431C15.5855 11.8461 15.8403 11.1699 16.0363 10.6057ZM17.4118 14.5152V14.5138L17.4132 14.5089L17.4181 14.4872C17.4505 14.3516 17.4799 14.2153 17.5063 14.0784C17.5595 13.8068 17.6232 13.4344 17.6652 13.0319C17.7079 12.628 17.7282 12.2031 17.6974 11.8223C17.6666 11.4331 17.5854 11.1328 17.4594 10.9438C17.3904 10.8487 17.3141 10.7591 17.2312 10.6757C17.0919 10.5301 16.7916 10.5637 16.6978 10.8353C16.4997 11.4051 16.233 12.1163 15.9642 12.6553C15.2173 14.154 14.735 15.1067 13.433 16.2617C13.195 16.4731 12.9122 16.6236 12.6378 16.7321C12.0218 16.9757 11.6249 17.5357 11.7278 18.0474L11.9742 19.2829C12.0125 19.4742 12.1033 19.6511 12.2365 19.7936C12.3696 19.9362 12.5399 20.0388 12.7281 20.09L16.6481 21.1589C16.9757 21.2482 17.3182 21.2685 17.654 21.2184C17.9898 21.1683 18.3115 21.049 18.5987 20.868C18.8859 20.687 19.1324 20.4483 19.3225 20.167C19.5126 19.8857 19.6421 19.568 19.7029 19.2339L20.1817 16.6005C20.2184 16.3988 20.2104 16.1914 20.1581 15.9931C20.1058 15.7947 20.0106 15.6103 19.8792 15.4529C19.7478 15.2954 19.5833 15.1688 19.3976 15.0818C19.2118 14.9949 19.0092 14.9499 18.8041 14.9499H17.7506C17.6975 14.9498 17.6451 14.9376 17.5974 14.9143C17.5498 14.8909 17.508 14.857 17.4754 14.8151C17.4427 14.7732 17.42 14.7244 17.409 14.6725C17.398 14.6205 17.399 14.5668 17.4118 14.5152Z" fill="#75EB00"/>
</svg>
