<svg width="32" height="32" viewBox="0 0 32 32" fill="none" xmlns="http://www.w3.org/2000/svg">
<g clip-path="url(#clip0_1020_12)">
<path d="M16 32C24.8366 32 32 24.8366 32 16C32 7.16344 24.8366 0 16 0C7.16344 0 0 7.16344 0 16C0 24.8366 7.16344 32 16 32Z" fill="#828282" fill-opacity="0.1"/>
<path d="M16.0363 10.6056C16.2743 9.92173 17.1787 9.60673 17.7373 10.1926C17.8521 10.3116 17.9655 10.4404 18.0425 10.5559C18.2665 10.8919 18.361 11.335 18.3953 11.7669C18.4303 12.2058 18.4065 12.6776 18.3617 13.1053C18.3214 13.4769 18.2651 13.8467 18.193 14.2134L18.186 14.2498H18.8041C19.1118 14.2498 19.4157 14.3173 19.6943 14.4477C19.973 14.5781 20.2196 14.7681 20.4167 15.0042C20.6138 15.2404 20.7566 15.517 20.8351 15.8145C20.9135 16.112 20.9256 16.4231 20.8705 16.7257L20.3917 19.3584C20.3137 19.7881 20.1472 20.1967 19.9028 20.5586C19.6584 20.9204 19.3414 21.2275 18.972 21.4603C18.6026 21.6931 18.1888 21.8466 17.757 21.911C17.3251 21.9754 16.8846 21.9493 16.4633 21.8343L12.5433 20.7654C12.2298 20.6798 11.9464 20.5086 11.7247 20.271C11.503 20.0334 11.3519 19.7387 11.2882 19.42L11.0411 18.1845C10.8465 17.2122 11.5899 16.3932 12.3802 16.081C12.5945 16.0014 12.7934 15.8853 12.9682 15.738C14.1631 14.6782 14.5957 13.8319 15.3377 12.343C15.5855 11.846 15.8403 11.1698 16.0363 10.6056ZM17.4118 14.5151V14.5137L17.4132 14.5088L17.4181 14.4871C17.4505 14.3515 17.4799 14.2152 17.5063 14.0783C17.5595 13.8067 17.6232 13.4343 17.6652 13.0318C17.7079 12.6279 17.7282 12.203 17.6974 11.8222C17.6666 11.433 17.5854 11.1327 17.4594 10.9437C17.3904 10.8486 17.3141 10.759 17.2312 10.6756C17.0919 10.53 16.7916 10.5636 16.6978 10.8352C16.4997 11.405 16.233 12.1162 15.9642 12.6552C15.2173 14.1539 14.735 15.1066 13.433 16.2616C13.195 16.473 12.9122 16.6235 12.6378 16.732C12.0218 16.9756 11.6249 17.5356 11.7278 18.0473L11.9742 19.2828C12.0125 19.4741 12.1033 19.651 12.2365 19.7935C12.3696 19.9361 12.5399 20.0387 12.7281 20.0899L16.6481 21.1588C16.9757 21.2481 17.3182 21.2684 17.654 21.2183C17.9898 21.1682 18.3115 21.0489 18.5987 20.8679C18.8859 20.6869 19.1324 20.4482 19.3225 20.1669C19.5126 19.8856 19.6421 19.5679 19.7029 19.2338L20.1817 16.6004C20.2184 16.3987 20.2104 16.1913 20.1581 15.993C20.1058 15.7946 20.0106 15.6102 19.8792 15.4528C19.7478 15.2953 19.5833 15.1687 19.3976 15.0817C19.2118 14.9948 19.0092 14.9498 18.8041 14.9498H17.7506C17.6975 14.9497 17.6451 14.9375 17.5974 14.9142C17.5498 14.8908 17.508 14.8569 17.4754 14.815C17.4427 14.7731 17.42 14.7243 17.409 14.6724C17.398 14.6204 17.399 14.5667 17.4118 14.5151Z" fill="#959595"/>
</g>
<defs>
<clipPath id="clip0_1020_12">
<rect width="32" height="32" fill="white"/>
</clipPath>
</defs>
</svg>
