<svg width="146" height="56" viewBox="0 0 146 56" fill="none" xmlns="http://www.w3.org/2000/svg">
<rect y="1.52588e-05" width="146" height="56" rx="12" fill="#0D1116"/>
<path d="M37.592 34.24C36.9413 34.24 36.3947 34.1227 35.952 33.888C35.5147 33.6533 35.1867 33.3413 34.968 32.952C34.7493 32.5627 34.64 32.1387 34.64 31.68C34.64 31.2107 34.7333 30.8107 34.92 30.48C35.112 30.144 35.3707 29.8693 35.696 29.656C36.0267 29.4427 36.408 29.28 36.84 29.168C37.2773 29.0613 37.76 28.968 38.288 28.888C38.8213 28.8027 39.3413 28.7307 39.848 28.672C40.36 28.608 40.808 28.5467 41.192 28.488L40.776 28.744C40.792 27.8907 40.6267 27.2587 40.28 26.848C39.9333 26.4373 39.3307 26.232 38.472 26.232C37.88 26.232 37.3787 26.3653 36.968 26.632C36.5627 26.8987 36.2773 27.32 36.112 27.896L34.968 27.56C35.1653 26.7867 35.5627 26.1867 36.16 25.76C36.7573 25.3333 37.5333 25.12 38.488 25.12C39.2773 25.12 39.9467 25.2693 40.496 25.568C41.0507 25.8613 41.4427 26.288 41.672 26.848C41.7787 27.0987 41.848 27.3787 41.88 27.688C41.912 27.9973 41.928 28.312 41.928 28.632V34H40.88V31.832L41.184 31.96C40.8907 32.7013 40.4347 33.2667 39.816 33.656C39.1973 34.0453 38.456 34.24 37.592 34.24ZM37.728 33.224C38.2773 33.224 38.7573 33.1253 39.168 32.928C39.5787 32.7307 39.9093 32.4613 40.16 32.12C40.4107 31.7733 40.5733 31.384 40.648 30.952C40.712 30.6747 40.7467 30.3707 40.752 30.04C40.7573 29.704 40.76 29.4533 40.76 29.288L41.208 29.52C40.808 29.5733 40.3733 29.6267 39.904 29.68C39.44 29.7333 38.9813 29.7947 38.528 29.864C38.08 29.9333 37.6747 30.016 37.312 30.112C37.0667 30.1813 36.8293 30.28 36.6 30.408C36.3707 30.5307 36.1813 30.696 36.032 30.904C35.888 31.112 35.816 31.3707 35.816 31.68C35.816 31.9307 35.8773 32.1733 36 32.408C36.128 32.6427 36.3307 32.8373 36.608 32.992C36.8907 33.1467 37.264 33.224 37.728 33.224ZM47.3626 34.24C46.5573 34.24 45.8693 34.04 45.2986 33.64C44.728 33.2347 44.2906 32.688 43.9866 32C43.6826 31.312 43.5306 30.536 43.5306 29.672C43.5306 28.8133 43.68 28.04 43.9786 27.352C44.2826 26.664 44.7173 26.12 45.2826 25.72C45.848 25.32 46.5253 25.12 47.3146 25.12C48.1253 25.12 48.808 25.3173 49.3626 25.712C49.9173 26.1067 50.336 26.648 50.6186 27.336C50.9066 28.0187 51.0506 28.7973 51.0506 29.672C51.0506 30.5307 50.9093 31.3067 50.6266 32C50.344 32.688 49.928 33.2347 49.3786 33.64C48.8293 34.04 48.1573 34.24 47.3626 34.24ZM47.4826 33.144C48.096 33.144 48.6026 32.9947 49.0026 32.696C49.4026 32.3973 49.7013 31.9867 49.8986 31.464C50.096 30.936 50.1946 30.3387 50.1946 29.672C50.1946 28.9947 50.096 28.3973 49.8986 27.88C49.7013 27.3573 49.4026 26.9493 49.0026 26.656C48.608 26.3627 48.1093 26.216 47.5066 26.216C46.888 26.216 46.376 26.368 45.9706 26.672C45.5653 26.976 45.264 27.3893 45.0666 27.912C44.8746 28.4347 44.7786 29.0213 44.7786 29.672C44.7786 30.328 44.8773 30.92 45.0746 31.448C45.2773 31.9707 45.5786 32.384 45.9786 32.688C46.3786 32.992 46.88 33.144 47.4826 33.144ZM50.1946 34V27.496H50.0666V22.48H51.2506V34H50.1946ZM56.847 34.24C56.0417 34.24 55.3537 34.04 54.783 33.64C54.2123 33.2347 53.775 32.688 53.471 32C53.167 31.312 53.015 30.536 53.015 29.672C53.015 28.8133 53.1643 28.04 53.463 27.352C53.767 26.664 54.2017 26.12 54.767 25.72C55.3323 25.32 56.0097 25.12 56.799 25.12C57.6097 25.12 58.2923 25.3173 58.847 25.712C59.4017 26.1067 59.8203 26.648 60.103 27.336C60.391 28.0187 60.535 28.7973 60.535 29.672C60.535 30.5307 60.3937 31.3067 60.111 32C59.8283 32.688 59.4123 33.2347 58.863 33.64C58.3137 34.04 57.6417 34.24 56.847 34.24ZM56.967 33.144C57.5803 33.144 58.087 32.9947 58.487 32.696C58.887 32.3973 59.1857 31.9867 59.383 31.464C59.5803 30.936 59.679 30.3387 59.679 29.672C59.679 28.9947 59.5803 28.3973 59.383 27.88C59.1857 27.3573 58.887 26.9493 58.487 26.656C58.0923 26.3627 57.5937 26.216 56.991 26.216C56.3723 26.216 55.8603 26.368 55.455 26.672C55.0497 26.976 54.7483 27.3893 54.551 27.912C54.359 28.4347 54.263 29.0213 54.263 29.672C54.263 30.328 54.3617 30.92 54.559 31.448C54.7617 31.9707 55.063 32.384 55.463 32.688C55.863 32.992 56.3643 33.144 56.967 33.144ZM59.679 34V27.496H59.551V22.48H60.735V34H59.679ZM66.3425 23.72V22.4H67.5185V23.72H66.3425ZM66.3425 34V25.36H67.5185V34H66.3425ZM80.2209 34L80.2289 28.328C80.2289 27.6613 80.0422 27.1387 79.6689 26.76C79.3009 26.376 78.8315 26.184 78.2609 26.184C77.9355 26.184 77.6182 26.2587 77.3089 26.408C76.9995 26.5573 76.7435 26.7973 76.5409 27.128C76.3435 27.4587 76.2449 27.8907 76.2449 28.424L75.5489 28.224C75.5329 27.6053 75.6529 27.064 75.9089 26.6C76.1702 26.136 76.5275 25.776 76.9809 25.52C77.4395 25.2587 77.9569 25.128 78.5329 25.128C79.4022 25.128 80.0982 25.3973 80.6209 25.936C81.1435 26.4693 81.4049 27.192 81.4049 28.104L81.3969 34H80.2209ZM69.9089 34V25.36H70.9649V27.488H71.0929V34H69.9089ZM75.0769 34L75.0849 28.408C75.0849 27.72 74.9009 27.1787 74.5329 26.784C74.1702 26.384 73.6902 26.184 73.0929 26.184C72.4955 26.184 72.0129 26.3893 71.6449 26.8C71.2769 27.2053 71.0929 27.7467 71.0929 28.424L70.3889 28.04C70.3889 27.4853 70.5195 26.9893 70.7809 26.552C71.0422 26.1093 71.3995 25.7627 71.8529 25.512C72.3062 25.256 72.8209 25.128 73.3969 25.128C73.9462 25.128 74.4342 25.2453 74.8609 25.48C75.2929 25.7147 75.6315 26.056 75.8769 26.504C76.1222 26.952 76.2449 27.496 76.2449 28.136L76.2369 34H75.0769ZM85.9514 34.24C85.3007 34.24 84.754 34.1227 84.3114 33.888C83.874 33.6533 83.546 33.3413 83.3274 32.952C83.1087 32.5627 82.9994 32.1387 82.9994 31.68C82.9994 31.2107 83.0927 30.8107 83.2794 30.48C83.4714 30.144 83.73 29.8693 84.0554 29.656C84.386 29.4427 84.7674 29.28 85.1994 29.168C85.6367 29.0613 86.1194 28.968 86.6474 28.888C87.1807 28.8027 87.7007 28.7307 88.2074 28.672C88.7194 28.608 89.1674 28.5467 89.5514 28.488L89.1354 28.744C89.1514 27.8907 88.986 27.2587 88.6394 26.848C88.2927 26.4373 87.69 26.232 86.8314 26.232C86.2394 26.232 85.738 26.3653 85.3274 26.632C84.922 26.8987 84.6367 27.32 84.4714 27.896L83.3274 27.56C83.5247 26.7867 83.922 26.1867 84.5194 25.76C85.1167 25.3333 85.8927 25.12 86.8474 25.12C87.6367 25.12 88.306 25.2693 88.8554 25.568C89.41 25.8613 89.802 26.288 90.0314 26.848C90.138 27.0987 90.2074 27.3787 90.2394 27.688C90.2714 27.9973 90.2874 28.312 90.2874 28.632V34H89.2394V31.832L89.5434 31.96C89.25 32.7013 88.794 33.2667 88.1754 33.656C87.5567 34.0453 86.8154 34.24 85.9514 34.24ZM86.0874 33.224C86.6367 33.224 87.1167 33.1253 87.5274 32.928C87.938 32.7307 88.2687 32.4613 88.5194 32.12C88.77 31.7733 88.9327 31.384 89.0074 30.952C89.0714 30.6747 89.106 30.3707 89.1114 30.04C89.1167 29.704 89.1194 29.4533 89.1194 29.288L89.5674 29.52C89.1674 29.5733 88.7327 29.6267 88.2634 29.68C87.7994 29.7333 87.3407 29.7947 86.8874 29.864C86.4394 29.9333 86.034 30.016 85.6714 30.112C85.426 30.1813 85.1887 30.28 84.9594 30.408C84.73 30.5307 84.5407 30.696 84.3914 30.904C84.2474 31.112 84.1754 31.3707 84.1754 31.68C84.1754 31.9307 84.2367 32.1733 84.3594 32.408C84.4874 32.6427 84.69 32.8373 84.9674 32.992C85.25 33.1467 85.6234 33.224 86.0874 33.224ZM95.802 38.08C95.3593 38.08 94.922 38.0133 94.49 37.88C94.0633 37.752 93.6687 37.5467 93.306 37.264C92.9433 36.9867 92.6393 36.624 92.394 36.176L93.458 35.584C93.698 36.064 94.034 36.408 94.466 36.616C94.9033 36.8293 95.3487 36.936 95.802 36.936C96.426 36.936 96.93 36.8187 97.314 36.584C97.7033 36.3547 97.986 36.0133 98.162 35.56C98.338 35.1067 98.4233 34.5413 98.418 33.864V31.56H98.554V25.36H99.602V33.88C99.602 34.1253 99.594 34.36 99.578 34.584C99.5673 34.8133 99.5433 35.0373 99.506 35.256C99.4047 35.9013 99.194 36.432 98.874 36.848C98.5593 37.264 98.1433 37.5733 97.626 37.776C97.114 37.9787 96.506 38.08 95.802 38.08ZM95.722 34.24C94.9167 34.24 94.2287 34.04 93.658 33.64C93.0873 33.2347 92.65 32.688 92.346 32C92.042 31.312 91.89 30.536 91.89 29.672C91.89 28.8133 92.0393 28.04 92.338 27.352C92.642 26.664 93.0767 26.12 93.642 25.72C94.2073 25.32 94.8847 25.12 95.674 25.12C96.4847 25.12 97.1673 25.3173 97.722 25.712C98.2767 26.1067 98.6953 26.648 98.978 27.336C99.266 28.0187 99.41 28.7973 99.41 29.672C99.41 30.5307 99.2687 31.3067 98.986 32C98.7033 32.688 98.2873 33.2347 97.738 33.64C97.1887 34.04 96.5167 34.24 95.722 34.24ZM95.842 33.144C96.4553 33.144 96.962 32.9947 97.362 32.696C97.762 32.3973 98.0607 31.9867 98.258 31.464C98.4553 30.936 98.554 30.3387 98.554 29.672C98.554 28.9947 98.4553 28.3973 98.258 27.88C98.0607 27.3573 97.762 26.9493 97.362 26.656C96.9673 26.3627 96.4687 26.216 95.866 26.216C95.2473 26.216 94.7353 26.368 94.33 26.672C93.9247 26.976 93.6233 27.3893 93.426 27.912C93.234 28.4347 93.138 29.0213 93.138 29.672C93.138 30.328 93.2367 30.92 93.434 31.448C93.6367 31.9707 93.938 32.384 94.338 32.688C94.738 32.992 95.2393 33.144 95.842 33.144ZM105.495 34.24C104.652 34.24 103.921 34.0533 103.303 33.68C102.689 33.3067 102.212 32.7813 101.871 32.104C101.529 31.4267 101.359 30.632 101.359 29.72C101.359 28.776 101.527 27.96 101.863 27.272C102.199 26.584 102.671 26.0533 103.279 25.68C103.892 25.3067 104.615 25.12 105.447 25.12C106.3 25.12 107.028 25.3173 107.631 25.712C108.233 26.1013 108.689 26.6613 108.999 27.392C109.308 28.1227 109.449 28.9947 109.423 30.008H108.223V29.592C108.201 28.472 107.959 27.6267 107.495 27.056C107.036 26.4853 106.364 26.2 105.479 26.2C104.551 26.2 103.839 26.5013 103.343 27.104C102.852 27.7067 102.607 28.5653 102.607 29.68C102.607 30.768 102.852 31.6133 103.343 32.216C103.839 32.8133 104.54 33.112 105.447 33.112C106.065 33.112 106.604 32.9707 107.063 32.688C107.527 32.4 107.892 31.9867 108.159 31.448L109.255 31.872C108.913 32.624 108.409 33.208 107.743 33.624C107.081 34.0347 106.332 34.24 105.495 34.24ZM102.191 30.008V29.024H108.791V30.008H102.191Z" fill="white"/>
</svg>
