<svg width="24" height="24" viewBox="0 0 24 24" fill="none" xmlns="http://www.w3.org/2000/svg">
<path d="M17.2748 10.7C17.0748 10.9 16.8331 10.996 16.5498 10.988C16.2665 10.98 16.0248 10.8757 15.8248 10.675L12.9998 7.85L12.9998 19C12.9998 19.2833 12.9038 19.521 12.7118 19.713C12.5198 19.905 12.2825 20.0007 11.9998 20C11.7165 20 11.4788 19.904 11.2868 19.712C11.0948 19.52 10.9991 19.2827 10.9998 19L10.9998 7.85L8.1498 10.7C7.9498 10.9 7.71214 11 7.4368 11C7.16147 11 6.92414 10.9 6.7248 10.7C6.5248 10.5 6.4248 10.2623 6.4248 9.987C6.4248 9.71166 6.5248 9.47433 6.7248 9.275L11.2998 4.7C11.3998 4.6 11.5081 4.529 11.6248 4.487C11.7415 4.445 11.8665 4.42433 11.9998 4.425C12.1331 4.425 12.2581 4.446 12.3748 4.488C12.4915 4.53 12.5998 4.60066 12.6998 4.7L17.2998 9.3C17.4831 9.48333 17.5748 9.71233 17.5748 9.987C17.5748 10.2617 17.4748 10.4993 17.2748 10.7Z" fill="white"/>
</svg>
