<svg width="28" height="28" viewBox="0 0 28 28" fill="none" xmlns="http://www.w3.org/2000/svg">
<g clip-path="url(#clip0_1227_43)">
<mask id="mask0_1227_43" style="mask-type:luminance" maskUnits="userSpaceOnUse" x="0" y="0" width="28" height="28">
<path d="M28 0H0V28H28V0Z" fill="white"/>
</mask>
<g mask="url(#mask0_1227_43)">
<path d="M25.3502 26.823L23.0781 24.5506L23.0756 24.5531L13.6114 15.0889L1.84612 26.8538C0.576814 27.9255 -0.65676 26.4061 0.398905 25.3501L2.67136 23.078L2.66886 23.0755L12.1334 13.611L0.368181 1.84611C-0.70356 0.576814 0.815812 -0.656759 1.87184 0.398905L4.3397 2.86641L4.3422 2.86391L13.6114 12.133L25.3759 0.368182C26.6452 -0.703559 27.8787 0.815813 26.8231 1.87183L24.3556 4.3397L24.3581 4.3422L15.0893 13.611L26.8538 25.3758C27.9255 26.6451 26.4062 27.8787 25.3502 26.823Z" fill="#808080"/>
</g>
</g>
<defs>
<clipPath id="clip0_1227_43">
<rect width="28" height="28" fill="white"/>
</clipPath>
</defs>
</svg>
