<svg width="64" height="64" viewBox="0 0 64 64" fill="none" xmlns="http://www.w3.org/2000/svg">
<g clip-path="url(#clip0_152_55)">
<path d="M53.3333 0H10.6667C4.776 0 0 4.776 0 10.6667V53.3333C0 59.224 4.776 64 10.6667 64H53.3333C59.224 64 64 59.224 64 53.3333V10.6667C64 4.776 59.224 0 53.3333 0ZM21.3333 52H14.6667V25.3333H21.3333V52ZM21.372 20.012C20.5093 20.892 19.384 21.3333 18 21.3333C16.632 21.3333 15.5133 20.8787 14.6413 19.9693C13.7693 19.06 13.3333 17.944 13.3333 16.624C13.3333 15.264 13.7693 14.1547 14.6413 13.2933C15.5133 12.4307 16.632 12 18 12C19.384 12 20.5093 12.4307 21.372 13.292C22.2347 14.1533 22.6667 15.264 22.6667 16.624C22.6667 18.0027 22.2347 19.132 21.372 20.012ZM52 52H45.3333V37.1827C45.3333 33.0507 42.952 30.6667 40 30.6667C38.5773 30.6667 36.968 31.5307 36.0467 32.6253C35.1253 33.72 34.6667 35.108 34.6667 36.792V52H28V25.3333H34.6667V29.552H34.7707C36.7333 26.3053 39.588 24.6933 43.3387 24.6827C48.6667 24.6667 52 28.6667 52 35.672V52Z" fill="white"/>
</g>
<defs>
<clipPath id="clip0_152_55">
<rect width="64" height="64" fill="white"/>
</clipPath>
</defs>
</svg>
