<svg width="38" height="38" viewBox="0 0 38 38" fill="none" xmlns="http://www.w3.org/2000/svg">
<rect width="38" height="38" rx="4" fill="#2D3339"/>
<path d="M26.3417 17.9981L21.1464 12.8028C21.0919 12.7483 21.0225 12.7113 20.947 12.6963C20.8715 12.6813 20.7932 12.689 20.722 12.7185C20.6509 12.7479 20.59 12.7978 20.5472 12.8618C20.5044 12.9258 20.4815 13.0011 20.4814 13.0781V15.8186C16.9434 16.0518 12.6631 19.3904 12.1735 23.6545C12.1576 23.7903 12.1849 23.9276 12.2516 24.0469C12.3183 24.1662 12.421 24.2615 12.545 24.319C12.669 24.3766 12.808 24.3936 12.9422 24.3675C13.0764 24.3415 13.199 24.2738 13.2924 24.174C14.0237 23.3941 16.6499 20.9101 20.4814 20.7496V23.4687C20.4815 23.5458 20.5044 23.621 20.5472 23.685C20.59 23.7491 20.6509 23.7989 20.722 23.8284C20.7932 23.8579 20.8715 23.8656 20.947 23.8506C21.0225 23.8356 21.0919 23.7985 21.1464 23.7441L26.3417 18.5488C26.4147 18.4757 26.4557 18.3767 26.4557 18.2734C26.4557 18.1702 26.4147 18.0711 26.3417 17.9981ZM21.2607 22.5284V20.3516C21.2607 20.2482 21.2197 20.1491 21.1466 20.076C21.0735 20.003 20.9744 19.9619 20.8711 19.9619C19.0703 19.9619 17.3149 20.4327 15.655 21.3614C14.6875 21.9049 13.7963 22.5742 13.0047 23.3518C13.31 21.627 14.3139 19.9749 15.8621 18.6585C17.3948 17.3604 19.2664 16.585 20.8711 16.585C20.9744 16.585 21.0735 16.5439 21.1466 16.4708C21.2197 16.3978 21.2607 16.2986 21.2607 16.1953V14.0191L25.515 18.2734L21.2607 22.5284Z" fill="#9327FF"/>
</svg>
