<svg width="50" height="49" viewBox="0 0 50 49" fill="none" xmlns="http://www.w3.org/2000/svg">
<path d="M0.924057 24.3038C0.924057 12.8469 0.924057 7.11841 4.48326 3.55921C8.04247 0 13.7709 0 25.2279 0C36.6848 0 42.4132 0 45.9725 3.55921C49.5316 7.11841 49.5316 12.8469 49.5316 24.3038C49.5316 35.7607 49.5316 41.4891 45.9725 45.0484C42.4132 48.6076 36.6848 48.6076 25.2279 48.6076C13.7709 48.6076 8.04247 48.6076 4.48326 45.0484C0.924057 41.4891 0.924057 35.7607 0.924057 24.3038Z" fill="#9327FF"/>
<path d="M30.0882 31.5949C30.7593 31.5949 31.3156 32.1443 31.1823 32.8021C30.9467 33.9638 30.3743 35.0406 29.5237 35.8912C28.3843 37.0307 26.8389 37.6709 25.2274 37.6709C23.6159 37.6709 22.0706 37.0307 20.9311 35.8912C20.0805 35.0406 19.5081 33.9638 19.2726 32.8021C19.1392 32.1443 19.6955 31.5949 20.3666 31.5949H30.0882Z" fill="white"/>
<path d="M32.6426 21.6018C31.9943 21.7755 31.5973 22.4537 31.926 23.0388C32.2719 23.6546 32.7505 24.1921 33.3327 24.6093C34.2467 25.2643 35.3596 25.5822 36.4818 25.5085C37.6039 25.435 38.6659 24.9747 39.4866 24.206C40.3075 23.4372 40.8362 22.4076 40.983 21.2927C41.1298 20.1777 40.8856 19.0464 40.2917 18.0914C39.6978 17.1365 38.7912 16.417 37.7263 16.0555C36.6614 15.6939 35.5042 15.7129 34.4517 16.109C33.7814 16.3613 33.1802 16.7566 32.6866 17.2619C32.2176 17.742 32.4255 18.4999 33.0068 18.8354L33.6232 19.1914C34.5607 19.7327 34.3759 21.1374 33.3301 21.4176L32.6426 21.6018Z" fill="white"/>
<path d="M17.8124 21.6018C18.4607 21.7755 18.8577 22.4537 18.529 23.0388C18.183 23.6546 17.7045 24.1921 17.1224 24.6093C16.2083 25.2643 15.0953 25.5822 13.9732 25.5085C12.851 25.435 11.7891 24.9747 10.9683 24.206C10.1475 23.4372 9.61867 22.4076 9.47189 21.2927C9.32511 20.1777 9.56945 19.0464 10.1633 18.0914C10.7571 17.1365 11.6637 16.417 12.7286 16.0555C13.7935 15.6939 14.9508 15.7129 16.0033 16.109C16.6735 16.3613 17.2749 16.7566 17.7685 17.2619C18.2374 17.742 18.0294 18.4999 17.4482 18.8354L16.8317 19.1914C15.8942 19.7327 16.0791 21.1374 17.1248 21.4176L17.8124 21.6018Z" fill="white"/>
</svg>
