<svg width="1366" height="446" viewBox="0 0 1366 446" fill="none" xmlns="http://www.w3.org/2000/svg">
<path d="M110 135.5C115.5 130 122 125.8 129.6 122.8C137.1 119.9 145.4 118.4 154.4 118.4C163.9 118.4 172.8 120.3 180.9 124C189 127.8 196.3 133.4 202.9 140.9L231.6 114.4C222.4 103.2 211.1 94.7002 197.6 88.9002C184.1 83.1002 169 80.2002 152.3 80.2002C137.2 80.2002 123.4 82.6002 110.7 87.5002C98.0001 92.4002 87.0001 99.3002 77.5001 108.3C68.0001 117.3 60.7001 127.9 55.5001 140C50.3001 152.1 47.6001 165.4 47.6001 180C47.6001 194.5 50.2001 207.8 55.5001 220C60.7001 232.1 68.0001 242.7 77.4001 251.7C86.8001 260.7 97.8001 267.6 110.6 272.5C123.4 277.4 137.2 279.8 152.1 279.8C169 279.8 184.2 276.9 197.7 271C211.2 265.1 222.5 256.6 231.7 245.4L203 218.9C196.4 226.6 189 232.4 181 236.1C172.9 239.9 164.1 241.7 154.5 241.7C145.5 241.7 137.2 240.2 129.7 237.3C122.2 234.4 115.6 230.1 110.1 224.6C104.6 219.1 100.3 212.6 97.3001 205C94.3001 197.5 92.8001 189.1 92.8001 179.9C92.8001 170.7 94.3001 162.4 97.3001 154.8C100.2 147.5 104.5 141 110 135.5Z" fill="#9327FF"/>
<path d="M426.2 108.7C416.7 99.7004 405.6 92.7004 392.9 87.8004C380.1 82.8004 366.1 80.4004 350.9 80.4004C335.8 80.4004 321.9 82.9004 309 87.8004C296.1 92.8004 284.9 99.7004 275.4 108.7C265.8 117.7 258.5 128.3 253.2 140.4C248 152.5 245.3 165.8 245.3 180.1C245.3 194.4 247.9 207.7 253.2 219.8C258.4 231.9 265.8 242.5 275.2 251.5C284.7 260.5 295.9 267.5 308.8 272.4C321.8 277.4 335.8 279.8 351.1 279.8C366.2 279.8 380.1 277.3 392.8 272.4C405.6 267.4 416.7 260.5 426.1 251.6C435.6 242.7 443 232.1 448.3 219.9C453.6 207.7 456.3 194.4 456.3 180.1C456.3 165.6 453.6 152.3 448.3 140.3C443 128.2 435.6 117.7 426.2 108.7ZM406.6 205.2C403.6 212.7 399.3 219.3 393.8 224.8C388.3 230.3 381.9 234.5 374.6 237.5C367.3 240.4 359.4 241.9 350.8 241.9C342.2 241.9 334.2 240.4 326.8 237.5C319.5 234.6 313.1 230.3 307.6 224.8C302.2 219.3 298 212.7 294.9 205.1C291.9 197.5 290.4 189.2 290.4 180.2C290.4 171 291.9 162.7 294.9 155.1C297.9 147.6 302.2 141 307.7 135.5C313.2 130 319.6 125.8 326.9 122.8C334.2 119.9 342.1 118.4 350.7 118.4C359.3 118.4 367.3 119.9 374.7 122.8C382 125.7 388.4 130 393.9 135.5C399.3 141 403.5 147.5 406.6 155.1C409.6 162.6 411.1 171 411.1 180.2C411.2 189.3 409.7 197.6 406.6 205.2Z" fill="#9327FF"/>
<path d="M618.1 92.1002C605.6 86.5002 590.7 83.7002 573.5 83.7002H490V276.6H534.6V223.4H573.5C590.8 223.4 605.6 220.6 618.1 215C630.6 209.4 640.2 201.4 647 190.9C653.8 180.4 657.2 168 657.2 153.7C657.2 139.2 653.8 126.7 647 116.2C640.2 105.7 630.6 97.7002 618.1 92.1002ZM601.8 178.2C595 184 584.8 187 571 187H534.6V120H571C584.8 120 595.1 122.9 601.9 128.8C608.7 134.7 612.1 142.9 612.1 153.6C612 164.1 608.6 172.3 601.8 178.2Z" fill="white"/>
<path d="M733.5 83.6006H688.9V276.501H733.5V83.6006Z" fill="white"/>
<path d="M823.9 83.6006H779.3V276.501H920.7V240.201H823.9V83.6006Z" fill="white"/>
<path d="M1111.2 108.7C1101.7 99.7004 1090.6 92.7004 1077.9 87.8004C1065.1 82.8004 1051.1 80.4004 1035.9 80.4004C1020.8 80.4004 1006.9 82.9004 994 87.8004C981.1 92.8004 969.9 99.7004 960.4 108.7C950.8 117.7 943.5 128.3 938.2 140.4C933 152.5 930.3 165.8 930.3 180.1C930.3 194.4 932.9 207.7 938.2 219.8C943.4 231.9 950.8 242.5 960.2 251.5C969.7 260.5 980.9 267.5 993.8 272.4C1006.8 277.4 1020.8 279.8 1036.1 279.8C1051.2 279.8 1065.1 277.3 1077.8 272.4C1090.6 267.4 1101.7 260.5 1111.1 251.6C1120.6 242.7 1128 232.1 1133.3 219.9C1138.6 207.7 1141.3 194.4 1141.3 180.1C1141.3 165.6 1138.6 152.3 1133.3 140.3C1128.1 128.2 1120.7 117.7 1111.2 108.7ZM1091.6 205.2C1088.6 212.7 1084.3 219.3 1078.8 224.8C1073.3 230.3 1066.9 234.5 1059.6 237.5C1052.3 240.4 1044.4 241.9 1035.8 241.9C1027.2 241.9 1019.2 240.4 1011.8 237.5C1004.5 234.6 998.1 230.3 992.6 224.8C987.2 219.3 983 212.7 979.9 205.1C976.9 197.5 975.4 189.2 975.4 180.2C975.4 171 976.9 162.7 979.9 155.1C982.9 147.6 987.2 141 992.7 135.5C998.2 130 1004.6 125.8 1011.9 122.8C1019.2 119.9 1027.1 118.4 1035.7 118.4C1044.3 118.4 1052.3 119.9 1059.7 122.8C1067 125.7 1073.4 130 1078.9 135.5C1084.3 141 1088.5 147.5 1091.6 155.1C1094.6 162.6 1096.1 171 1096.1 180.2C1096.2 189.3 1094.7 197.6 1091.6 205.2Z" fill="white"/>
<path d="M1150.5 83.6006V120.001H1212.2V276.501H1256.8V120.001H1318.6V83.6006H1150.5Z" fill="white"/>
<path d="M88.6001 363.8H101.8V343H128.3V332.4H101.8V317.2H131.8V306.6H88.6001V363.8Z" fill="white"/>
<path d="M311.4 338.2C311.4 343.6 310.3 347.6 308.1 350C305.9 352.4 302.7 353.6 298.7 353.6C294.7 353.6 291.5 352.4 289.3 350C287.1 347.6 286 343.7 286 338.2V306.7H272.8V338.7C272.8 347.1 275.1 353.5 279.7 358.1C284.3 362.6 290.6 364.9 298.7 364.9C306.8 364.9 313.2 362.6 317.7 358.1C322.3 353.6 324.6 347.1 324.6 338.7V306.7H311.5V338.2H311.4Z" fill="white"/>
<path d="M509.3 341.3L480.8 306.6H469.9V363.8H482.9V329.1L511.5 363.8H522.3V306.6H509.3V341.3Z" fill="white"/>
<path d="M710.7 310.2C706 307.8 700.5 306.6 694.3 306.6H668.3V363.8H694.3C700.5 363.8 706 362.6 710.7 360.2C715.4 357.8 719.1 354.5 721.8 350.2C724.5 345.9 725.8 340.9 725.8 335.1C725.8 329.3 724.5 324.2 721.8 320C719.1 315.8 715.4 312.5 710.7 310.2ZM710 344.6C708.4 347.3 706.3 349.3 703.5 350.8C700.7 352.2 697.4 353 693.6 353H681.5V317.5H693.6C697.4 317.5 700.7 318.2 703.5 319.7C706.3 321.1 708.5 323.2 710 325.8C711.6 328.4 712.3 331.6 712.3 335.2C712.4 338.8 711.6 341.9 710 344.6Z" fill="white"/>
<path d="M881.3 306.6H868.1V363.8H881.3V306.6Z" fill="white"/>
<path d="M1066.6 341.3L1038.2 306.6H1027.3V363.8H1040.3V329.1L1068.9 363.8H1079.7V306.6H1066.6V341.3Z" fill="white"/>
<path d="M1240.6 322C1242.3 320.4 1244.2 319.1 1246.5 318.2C1248.8 317.3 1251.3 316.9 1254.1 316.9C1257 316.9 1259.7 317.4 1262.1 318.5C1264.6 319.6 1266.8 321.2 1268.9 323.4L1277.4 315.6C1274.6 312.4 1271.2 309.9 1267.1 308.2C1263 306.5 1258.5 305.7 1253.4 305.7C1248.8 305.7 1244.6 306.4 1240.8 307.9C1237 309.3 1233.7 311.4 1230.8 314.1C1228 316.8 1225.8 319.9 1224.2 323.5C1222.6 327.1 1221.9 331 1221.9 335.3C1221.9 339.6 1222.7 343.6 1224.2 347.1C1225.8 350.7 1227.9 353.8 1230.7 356.5C1233.5 359.2 1236.8 361.2 1240.6 362.7C1244.4 364.1 1248.5 364.9 1253.1 364.9C1257.2 364.9 1261.3 364.3 1265.4 363C1269.5 361.7 1273.1 359.9 1276.2 357.6V334.4H1264.1V351.2C1263.2 351.7 1262.3 352.1 1261.4 352.4C1258.9 353.2 1256.4 353.7 1253.8 353.7C1251.1 353.7 1248.6 353.3 1246.3 352.4C1244 351.5 1242.1 350.3 1240.4 348.6C1238.7 346.9 1237.5 345 1236.6 342.8C1235.7 340.6 1235.3 338.1 1235.3 335.4C1235.3 332.7 1235.7 330.2 1236.6 328C1237.7 325.5 1239 323.6 1240.6 322Z" fill="white"/>
</svg>
